PathFileType	4	(X/Y/Z)	/Users/itak/Documents/Research/Walk-IL/dataset/trc/00417_00012.trc
DataRate	CameraRate	NumFrames	NumMarkers	Units	OrigDataRate	OrigDataStartFrame	OrigNumFrames
100.000000	100.000000	4	54	mm	100.000000	459	735
Frame#	Time	RPSI			LPSI			L3			STRN			T10			C7			CLAV			RBAK			LBAK			LSHO			LUPA			LAEL			LAOL			LWTS			LWPS			LFRA			LIFD			LHPS			LHTS			RSHO			RUPA			RAEL			RAOL			RWTS			RWPS			RFRA			RIFD			RHPS			RBHD			LFHD			RFHD			LBHD			LHIP			RHIP			RASI			LASI			LKNE			LTHI			LANK			LTIP			LTOE			LMT1			LMT5			LHEE			RKNE			RTHI			RANK			RTIP			RTOE			RMT1			RMT5			RHEE			RHTS			*53			
		X1	Y1	Z1	X2	Y2	Z2	X3	Y3	Z3	X4	Y4	Z4	X5	Y5	Z5	X6	Y6	Z6	X7	Y7	Z7	X8	Y8	Z8	X9	Y9	Z9	X10	Y10	Z10	X11	Y11	Z11	X12	Y12	Z12	X13	Y13	Z13	X14	Y14	Z14	X15	Y15	Z15	X16	Y16	Z16	X17	Y17	Z17	X18	Y18	Z18	X19	Y19	Z19	X20	Y20	Z20	X21	Y21	Z21	X22	Y22	Z22	X23	Y23	Z23	X24	Y24	Z24	X25	Y25	Z25	X26	Y26	Z26	X27	Y27	Z27	X28	Y28	Z28	X29	Y29	Z29	X30	Y30	Z30	X31	Y31	Z31	X32	Y32	Z32	X33	Y33	Z33	X34	Y34	Z34	X35	Y35	Z35	X36	Y36	Z36	X37	Y37	Z37	X38	Y38	Z38	X39	Y39	Z39	X40	Y40	Z40	X41	Y41	Z41	X42	Y42	Z42	X43	Y43	Z43	X44	Y44	Z44	X45	Y45	Z45	X46	Y46	Z46	X47	Y47	Z47	X48	Y48	Z48	X49	Y49	Z49	X50	Y50	Z50	X51	Y51	Z51	X52	Y52	Z52	X53	Y53	Z53	X54	Y54	Z54	

460	4.59	-563.2875366210938	939.296875	-507.0245361328125	-494.0961303710938	933.2249755859375	-621.5691528320312	-535.005859375	1008.611694335938	-556.723876953125	-357.2322387695312	1171.294921875	-417.7781677246094	-553.58349609375	1112.632080078125	-569.0693969726562	-525.4346313476562	1363.123168945312	-552.934814453125	-404.7917785644531	1288.2392578125	-451.2951354980469	-592.8035278320312	1214.558349609375	-525.3207397460938	-472.1488952636719	1329.43359375	-640.95556640625	-374.1575927734375	1345.1474609375	-629.1832275390625	-363.2826538085938	1234.09375	-709.370849609375	-367.625244140625	1038.97998046875	-742.4656982421875	-448.5669555664062	1025.752197265625	-714.8584594726562	-359.9188537597656	802.4985961914062	-695.099853515625	-370.2094116210938	809.80419921875	-777.63232421875	-369.5763244628906	934.481201171875	-759.4171752929688	-412.2843627929688	633.6406860351562	-741.4296264648438	-387.3131408691406	724.3270874023438	-781.9815673828125	-364.7215576171875	705.5374755859375	-725.0155639648438	-577.8446655273438	1342.213256835938	-395.1670227050781	-626.861083984375	1277.730224609375	-360.1000366210938	-649.6189575195312	1017.648254394531	-313.7946166992188	-602.2509155273438	1000.742980957031	-396.0875549316406	-476.6409912109375	872.5763549804688	-212.032958984375	-537.9329223632812	848.876220703125	-180.1917572021484	-626.0245361328125	965.6622314453125	-272.2763366699219	-425.2297058105469	721.37451171875	-140.2562255859375	-506.3896179199219	775.2259521484375	-147.1733551025391	-551.7076416015625	1553.105346679688	-466.8362731933594	-354.4715881347656	1558.472778320312	-466.180419921875	-444.8169860839844	1561.712768554688	-385.1147766113281	-443.8573913574219	1546.26904296875	-585.1162719726562	-360.1952514648438	935.1107177734375	-663.4458618164062	-561.2234497070312	910.8058471679688	-366.0501708984375	-422.3228454589844	918.281005859375	-332.5458984375	-292.136474609375	939.0807495117188	-560.8269653320312	-173.5868988037109	488.4277954101562	-525.4908447265625	-225.2839813232422	610.69970703125	-573.1318969726562	-171.9346618652344	38.26375579833984	-580.9893798828125	-157.3458251953125	253.5263671875	-556.603271484375	-73.15686798095703	45.05341339111328	-380.75927734375	-149.3487548828125	40.56385803222656	-417.5350952148438	-77.75002288818359	39.4923095703125	-494.7796936035156	-238.0611114501953	36.31698608398438	-568.4025268554688	-553.0940551757812	431.1305847167969	-442.4295349121094	-502.9740295410156	676.0875244140625	-358.6551818847656	-801.3099975585938	112.0507049560547	-602.8579711914062	-600.9649047851562	316.7162780761719	-486.6132507324219	-655.9458618164062	36.18428039550781	-662.6994018554688	-704.7755126953125	62.1944465637207	-686.7351684570312	-738.7100219726562	52.97818756103516	-594.966552734375	-848.701171875	158.8157653808594	-664.917724609375	-442.4024047851562	791.510986328125	-150.9396820068359	nan	nan	nan	
461	4.600000000000001	-552.2281494140625	939.9178466796875	-503.0059204101562	-482.0248107910156	935.04248046875	-616.9517211914062	-522.7667846679688	1010.165771484375	-552.310791015625	-347.2797546386719	1173.300903320312	-412.3458251953125	-541.3823852539062	1113.856323242188	-564.6630249023438	-514.55712890625	1364.548950195312	-549.4547729492188	-394.8126831054688	1290.148315429688	-446.3328857421875	-581.4447021484375	1215.757446289062	-522.6754150390625	-460.2186889648438	1331.154052734375	-636.60888671875	-362.2310485839844	1347.334106445312	-623.7398071289062	-349.3601989746094	1236.439575195312	-703.7725219726562	-351.2243347167969	1040.988037109375	-736.1591796875	-432.6790161132812	1027.350952148438	-710.382568359375	-342.0408630371094	804.880859375	-687.2730712890625	-350.7350463867188	811.4733276367188	-770.0170288085938	-351.80810546875	936.3601684570312	-752.5819091796875	-391.4874572753906	635.21240234375	-733.1233520507812	-366.7943725585938	725.7019653320312	-773.9160766601562	-345.25634765625	707.6981811523438	-716.4879760742188	-568.6456909179688	1343.510375976562	-392.3699951171875	-617.9389038085938	1278.953979492188	-358.2074584960938	-641.6824340820312	1018.6171875	-315.2646179199219	-592.3544921875	1002.588195800781	-396.4954528808594	-473.8587951660156	867.700927734375	-212.1550903320312	-536.58056640625	845.1297607421875	-182.3468780517578	-619.8358154296875	965.5384521484375	-274.0310668945312	-428.8325500488281	713.5650634765625	-141.9787445068359	-508.1535949707031	770.1636352539062	-149.9633941650391	-542.6641235351562	1554.202270507812	-463.4280090332031	-345.4938049316406	1560.549438476562	-460.7627563476562	-436.62109375	1563.248779296875	-380.6146850585938	-433.6983337402344	1548.104614257812	-580.5633544921875	-347.6775207519531	937.70166015625	-657.6651611328125	-551.1624145507812	911.1912841796875	-362.0543823242188	-412.6496276855469	919.6756591796875	-328.0727844238281	-280.2546997070312	941.3934326171875	-554.7340087890625	-165.1868438720703	488.2164611816406	-520.3853149414062	-214.7921905517578	611.7014770507812	-567.8153686523438	-171.5825653076172	38.45009994506836	-581.0213012695312	-152.6607513427734	253.3151092529297	-553.9559326171875	-72.67263031005859	42.90192413330078	-380.2297973632812	-148.9906921386719	39.84619522094727	-417.3352661132812	-77.30558013916016	38.80955123901367	-494.7771606445312	-237.6574859619141	36.75687026977539	-568.4008178710938	-537.2543334960938	430.8298645019531	-433.3164367675781	-490.4585876464844	676.5201416015625	-353.0969543457031	-793.2288818359375	119.4831924438477	-599.8280639648438	-587.8778076171875	318.0287475585938	-477.8814697265625	-655.1575927734375	35.70377349853516	-661.6740112304688	-699.3955688476562	65.48978424072266	-683.8403930664062	-736.0756225585938	54.7256965637207	-593.0840454101562	-835.8504028320312	170.7764434814453	-661.3292846679688	-443.5170288085938	784.3990478515625	-151.7926940917969	nan	nan	nan	
462	4.61	-541.61181640625	940.47900390625	-499.2199401855469	-470.1940307617188	936.9096069335938	-612.4181518554688	-510.9777221679688	1011.875427246094	-548.0704345703125	-337.5825500488281	1175.268920898438	-406.7239685058594	-529.1530151367188	1115.17236328125	-560.21728515625	-503.6830139160156	1366.067260742188	-545.8758544921875	-384.9769592285156	1292.060424804688	-441.1864624023438	-570.2086181640625	1217.1015625	-520.0186767578125	-448.1744689941406	1332.888793945312	-632.1681518554688	-350.2776489257812	1349.539428710938	-618.04150390625	-335.2448425292969	1238.851806640625	-697.8960571289062	-334.5242004394531	1043.10205078125	-729.6103515625	-416.5101623535156	1029.023193359375	-705.857177734375	-323.7407836914062	807.428466796875	-679.1256103515625	-330.8316955566406	813.2514038085938	-762.0596313476562	-333.6913452148438	938.3466796875	-745.4584350585938	-369.9267578125	636.9164428710938	-724.1806030273438	-345.7461242675781	727.1730346679688	-765.4111328125	-325.1844177246094	710.0319213867188	-707.4844970703125	-559.558349609375	1344.917114257812	-389.5385131835938	-609.1636962890625	1280.317504882812	-356.277099609375	-633.7659301757812	1019.73876953125	-316.6890869140625	-582.4415893554688	1004.587585449219	-396.7971801757812	-471.2771911621094	862.9359741210938	-212.5617218017578	-535.3192749023438	841.525634765625	-184.8548431396484	-613.7119750976562	965.5510864257812	-275.8413696289062	-432.7611694335938	705.8757934570312	-144.5667266845703	-510.0435791015625	765.2592163085938	-153.3539276123047	-533.681640625	1555.307373046875	-459.9361572265625	-336.5991821289062	1562.702514648438	-455.2650451660156	-428.5378112792969	1564.86474609375	-376.0519714355469	-423.5500793457031	1549.914916992188	-575.90869140625	-335.3074340820312	940.422119140625	-651.7752075195312	-541.5858154296875	911.4595947265625	-358.2898864746094	-403.5145568847656	921.064697265625	-323.61572265625	-268.7299499511719	943.6993408203125	-548.5108032226562	-157.4494323730469	487.8209228515625	-516.1514892578125	-204.8419342041016	612.690185546875	-562.9888916015625	-171.2573699951172	38.5479736328125	-581.0953979492188	-148.5099029541016	252.9906463623047	-551.880615234375	-72.3447265625	41.54925918579102	-379.9165344238281	-148.7336273193359	39.49397277832031	-417.2656555175781	-76.92503356933594	38.39801025390625	-494.8894653320312	-237.3263092041016	37.06542587280273	-568.458740234375	-520.9592895507812	430.4552612304688	-423.4571838378906	-478.1926879882812	676.9415283203125	-347.2670288085938	-783.8432006835938	127.4297561645508	-596.21435546875	-573.8784790039062	319.359619140625	-468.5162048339844	-653.518798828125	34.92047119140625	-659.9564208984375	-693.1109619140625	69.22284698486328	-680.4786987304688	-732.6256713867188	57.48507308959961	-590.7721557617188	-821.4100341796875	182.8608093261719	-657.1069946289062	-444.8434143066406	777.3736572265625	-153.2432403564453	nan	nan	nan	
463	4.62	-531.4557495117188	940.9696655273438	-495.7313232421875	-458.5829467773438	938.7987670898438	-608.0133666992188	-499.6473388671875	1013.69970703125	-544.0739135742188	-328.1868286132812	1177.11669921875	-400.9173889160156	-516.8855590820312	1116.544189453125	-555.7783203125	-492.8204345703125	1367.645141601562	-542.1844482421875	-375.3069152832031	1293.91357421875	-435.8492126464844	-559.1068115234375	1218.5458984375	-517.3572387695312	-436.005615234375	1334.60205078125	-627.6344604492188	-338.3164367675781	1351.7041015625	-612.0755004882812	-320.9586181640625	1241.25634765625	-691.7213134765625	-317.5787658691406	1045.262084960938	-722.818115234375	-400.0948791503906	1030.700561523438	-701.2444458007812	-305.0727844238281	810.0875244140625	-670.6920776367188	-310.5831298828125	815.104736328125	-753.7822875976562	-315.3034057617188	940.3836059570312	-738.05224609375	-347.6435546875	638.7182006835938	-714.6778564453125	-324.2301025390625	728.7235107421875	-756.5108642578125	-304.5541687011719	712.4930419921875	-698.0615234375	-550.6174926757812	1346.372192382812	-386.6660461425781	-600.5726928710938	1281.74072265625	-354.3226318359375	-625.9173583984375	1020.921752929688	-318.0145874023438	-572.599609375	1006.640747070312	-396.9584045410156	-468.8779602050781	858.2904663085938	-213.2291107177734	-534.1265258789062	838.0524291992188	-187.676025390625	-607.6719360351562	965.628662109375	-277.6510314941406	-436.851806640625	698.3828735351562	-148.0298156738281	-511.9720458984375	760.5206298828125	-157.3187255859375	-524.7550048828125	1556.409301757812	-456.3605041503906	-327.7768249511719	1564.8837890625	-449.6801147460938	-420.5557861328125	1566.536010742188	-371.4230041503906	-413.3951110839844	1551.642944335938	-571.1549072265625	-323.0467834472656	943.1654052734375	-645.7919311523438	-532.5498046875	911.5753784179688	-354.8415832519531	-394.9477844238281	922.3856811523438	-319.1598510742188	-257.5813598632812	945.8815307617188	-542.1608276367188	-150.3643798828125	487.2767028808594	-512.669677734375	-195.5350494384766	613.5795288085938	-558.6354370117188	-170.962158203125	38.5879020690918	-581.177734375	-144.8191528320312	252.5665588378906	-550.2453002929688	-72.13178253173828	40.77156066894531	-379.7296447753906	-148.5552673339844	39.36378479003906	-417.2724914550781	-76.60881805419922	38.16073608398438	-495.0526428222656	-237.0626373291016	37.28348922729492	-568.5537109375	-504.25634765625	430.0774536132812	-412.9933166503906	-466.2632751464844	677.363525390625	-341.2227172851562	-773.058349609375	135.7697601318359	-591.9640502929688	-558.9390258789062	320.7059326171875	-458.6172180175781	-650.6978759765625	33.81871795654297	-657.2932739257812	-685.6956176757812	73.35549926757812	-676.515625	-728.06884765625	61.28657150268555	-587.9061889648438	-805.4297485351562	194.8137512207031	-652.2451782226562	-446.32861328125	770.4724731445312	-155.2963409423828	nan	nan	nan	
